<?xml version="1.0" encoding="UTF-8" standalone="no"?>
<svg
   xmlns:dc="http://purl.org/dc/elements/1.1/"
   xmlns:cc="http://creativecommons.org/ns#"
   xmlns:rdf="http://www.w3.org/1999/02/22-rdf-syntax-ns#"
   xmlns:svg="http://www.w3.org/2000/svg"
   xmlns="http://www.w3.org/2000/svg"
   xmlns:sodipodi="http://sodipodi.sourceforge.net/DTD/sodipodi-0.dtd"
   xmlns:inkscape="http://www.inkscape.org/namespaces/inkscape"
   id="trend-chart"
   width="800"
   height="400"
   title="Stack Overflow Trends Chart"
   version="1.1"
   sodipodi:docname="growth_new.svg"
   inkscape:export-filename="/home/juanlu/Personal/IE/2_statistical-programming/ref/notebooks/img/growth_new.png"
   inkscape:export-xdpi="200"
   inkscape:export-ydpi="200"
   inkscape:version="1.0 (9ff15a56b4, 2020-08-21)">
  <metadata
     id="metadata289">
    <rdf:RDF>
      <cc:Work
         rdf:about="">
        <dc:format>image/svg+xml</dc:format>
        <dc:type
           rdf:resource="http://purl.org/dc/dcmitype/StillImage" />
        <dc:title></dc:title>
      </cc:Work>
    </rdf:RDF>
  </metadata>
  <defs
     id="defs287" />
  <sodipodi:namedview
     pagecolor="#ffffff"
     bordercolor="#666666"
     borderopacity="1"
     objecttolerance="10"
     gridtolerance="10"
     guidetolerance="10"
     inkscape:pageopacity="1"
     inkscape:pageshadow="2"
     inkscape:window-width="1920"
     inkscape:window-height="1030"
     id="namedview285"
     showgrid="false"
     inkscape:zoom="0.97225374"
     inkscape:cx="290.88757"
     inkscape:cy="67.806969"
     inkscape:window-x="0"
     inkscape:window-y="0"
     inkscape:window-maximized="1"
     inkscape:current-layer="trend-chart"
     inkscape:document-rotation="0" />
  <g
     id="g2"
     transform="translate(50.000001,20)" />
  <g
     class="chart-area"
     transform="translate(150,40)"
     id="g246">
    <g
       class="lines"
       id="g244" />
  </g>
  <g
     transform="translate(191.80903,340)"
     fill="none"
     font-size="10px"
     font-family="sans-serif"
     text-anchor="middle"
     id="g78">
    <g
       class="tick"
       opacity="1"
       transform="translate(48.804477)"
       id="g16">
      <line
         stroke="#000000"
         y2="6"
         x1="0.5"
         x2="0.5"
         id="line12"
         y1="0" />
      <text
         fill="#000000"
         y="9"
         x="0.5"
         dy="0.70999998em"
         style="font-size:12px"
         id="text14"><tspan
           style="font-style:normal;font-variant:normal;font-weight:normal;font-stretch:normal;font-family:Ubuntu;-inkscape-font-specification:Ubuntu"
           id="tspan1130">2010</tspan></text>
    </g>
    <g
       class="tick"
       opacity="1"
       transform="translate(117.57745)"
       id="g28">
      <line
         stroke="#000000"
         y2="6"
         x1="0.5"
         x2="0.5"
         id="line24"
         y1="0" />
      <text
         fill="#000000"
         y="9"
         x="0.5"
         dy="0.70999998em"
         style="font-size:12px"
         id="text26"><tspan
           style="font-style:normal;font-variant:normal;font-weight:normal;font-stretch:normal;font-family:Ubuntu;-inkscape-font-specification:Ubuntu"
           id="tspan1122">2012</tspan></text>
    </g>
    <g
       class="tick"
       opacity="1"
       transform="translate(186.44464)"
       id="g40">
      <line
         stroke="#000000"
         y2="6"
         x1="0.5"
         x2="0.5"
         id="line36"
         y1="0" />
      <text
         fill="#000000"
         y="9"
         x="0.5"
         dy="0.70999998em"
         style="font-size:12px"
         id="text38"><tspan
           style="font-style:normal;font-variant:normal;font-weight:normal;font-stretch:normal;font-family:Ubuntu;-inkscape-font-specification:Ubuntu"
           id="tspan1120">2014</tspan></text>
    </g>
    <g
       class="tick"
       opacity="1"
       transform="translate(255.21762)"
       id="g52">
      <line
         stroke="#000000"
         y2="6"
         x1="0.5"
         x2="0.5"
         id="line48"
         y1="0" />
      <text
         fill="#000000"
         y="9"
         x="0.5"
         dy="0.70999998em"
         style="font-size:12px"
         id="text50"><tspan
           style="font-style:normal;font-variant:normal;font-weight:normal;font-stretch:normal;font-family:Ubuntu;-inkscape-font-specification:Ubuntu"
           id="tspan1124">2016</tspan></text>
    </g>
    <g
       class="tick"
       opacity="1"
       transform="translate(324.08481)"
       id="g64">
      <line
         stroke="#000000"
         y2="6"
         x1="0.5"
         x2="0.5"
         id="line60"
         y1="0" />
      <text
         fill="#000000"
         y="9"
         x="0.5"
         dy="0.70999998em"
         style="font-size:12px"
         id="text62"><tspan
           style="font-style:normal;font-variant:normal;font-weight:normal;font-stretch:normal;font-family:Ubuntu;-inkscape-font-specification:Ubuntu"
           id="tspan1126">2018</tspan></text>
    </g>
    <g
       class="tick"
       opacity="1"
       transform="translate(392.85779)"
       id="g76">
      <line
         stroke="#000000"
         y2="6"
         x1="0.5"
         x2="0.5"
         id="line72"
         y1="0" />
      <text
         fill="#000000"
         y="9"
         x="0.5"
         dy="0.70999998em"
         style="font-size:12px"
         id="text74"><tspan
           style="font-style:normal;font-variant:normal;font-weight:normal;font-stretch:normal;font-family:Ubuntu;-inkscape-font-specification:Ubuntu"
           id="tspan1128">2020</tspan></text>
    </g>
  </g>
  <g
     class="grid-lines"
     transform="translate(191.80903,340)"
     fill="none"
     font-size="10px"
     font-family="sans-serif"
     text-anchor="middle"
     id="g130">
    <path
       class="domain"
       stroke="#000"
       d="M 0.5,-300 V 0.5 h 410 V -300"
       id="path80"
       style="stroke:none" />
    <g
       class="tick"
       opacity="1"
       transform="translate(48.804477)"
       id="g88">
      <line
         stroke="#000"
         y2="-300"
         x1="0.5"
         x2="0.5"
         style="fill:none;stroke:#cccccc"
         id="line86"
         y1="0" />
    </g>
    <g
       class="tick"
       opacity="1"
       transform="translate(117.57745)"
       id="g96">
      <line
         stroke="#000"
         y2="-300"
         x1="0.5"
         x2="0.5"
         style="fill:none;stroke:#cccccc"
         id="line94"
         y1="0" />
    </g>
    <g
       class="tick"
       opacity="1"
       transform="translate(186.44464)"
       id="g104">
      <line
         stroke="#000"
         y2="-300"
         x1="0.5"
         x2="0.5"
         style="fill:none;stroke:#cccccc"
         id="line102"
         y1="0" />
    </g>
    <g
       class="tick"
       opacity="1"
       transform="translate(255.21762)"
       id="g112">
      <line
         stroke="#000"
         y2="-300"
         x1="0.5"
         x2="0.5"
         style="fill:none;stroke:#cccccc"
         id="line110"
         y1="0" />
    </g>
    <g
       class="tick"
       opacity="1"
       transform="translate(324.08481)"
       id="g120">
      <line
         stroke="#000"
         y2="-300"
         x1="0.5"
         x2="0.5"
         style="fill:none;stroke:#cccccc"
         id="line118"
         y1="0" />
    </g>
    <g
       class="tick"
       opacity="1"
       transform="translate(392.85779)"
       id="g128">
      <line
         stroke="#000"
         y2="-300"
         x1="0.5"
         x2="0.5"
         style="fill:none;stroke:#cccccc"
         id="line126"
         y1="0" />
    </g>
  </g>
  <g
     fill="none"
     font-size="10px"
     font-family="sans-serif"
     text-anchor="end"
     id="g190"
     transform="translate(191.80903,40)">
    <path
       class="domain"
       stroke="#000"
       d="M -6,300.5 H 0.5 V 0.5 H -6"
       id="path134"
       style="stroke:none" />
    <g
       class="tick"
       opacity="1"
       transform="translate(0,300)"
       id="g140">
      <line
         stroke="#000000"
         x2="-6"
         y1="0.5"
         y2="0.5"
         id="line136"
         x1="0" />
      <text
         fill="#000000"
         x="-9"
         y="0.5"
         dy="0.31999999em"
         style="font-size:12px"
         id="text138"><tspan
           style="font-style:normal;font-variant:normal;font-weight:normal;font-stretch:normal;font-family:Ubuntu;-inkscape-font-specification:Ubuntu"
           id="tspan1132">0.00%</tspan></text>
    </g>
    <g
       class="tick"
       opacity="1"
       transform="translate(0,262.5)"
       id="g146">
      <text
         fill="#000000"
         x="-9"
         y="0.5"
         dy="0.31999999em"
         style="font-size:12px"
         id="text144"><tspan
           style="font-style:normal;font-variant:normal;font-weight:normal;font-stretch:normal;font-family:Ubuntu;-inkscape-font-specification:Ubuntu"
           id="tspan1134">2.00%</tspan></text>
    </g>
    <g
       class="tick"
       opacity="1"
       transform="translate(0,225)"
       id="g152">
      <text
         fill="#000000"
         x="-9"
         y="0.5"
         dy="0.31999999em"
         style="font-size:12px"
         id="text150"><tspan
           style="font-style:normal;font-variant:normal;font-weight:normal;font-stretch:normal;font-family:Ubuntu;-inkscape-font-specification:Ubuntu"
           id="tspan1136">4.00%</tspan></text>
    </g>
    <g
       class="tick"
       opacity="1"
       transform="translate(0,187.5)"
       id="g158">
      <text
         fill="#000000"
         x="-9"
         y="0.5"
         dy="0.31999999em"
         style="font-size:12px"
         id="text156"><tspan
           style="font-style:normal;font-variant:normal;font-weight:normal;font-stretch:normal;font-family:Ubuntu;-inkscape-font-specification:Ubuntu"
           id="tspan1138">6.00%</tspan></text>
    </g>
    <g
       class="tick"
       opacity="1"
       transform="translate(0,150)"
       id="g164">
      <text
         fill="#000000"
         x="-9"
         y="0.5"
         dy="0.31999999em"
         style="font-size:12px"
         id="text162"><tspan
           style="font-style:normal;font-variant:normal;font-weight:normal;font-stretch:normal;font-family:Ubuntu;-inkscape-font-specification:Ubuntu"
           id="tspan1140">8.00%</tspan></text>
    </g>
    <g
       class="tick"
       opacity="1"
       transform="translate(0,112.5)"
       id="g170">
      <text
         fill="#000000"
         x="-9"
         y="0.5"
         dy="0.31999999em"
         style="font-size:12px"
         id="text168"><tspan
           style="font-style:normal;font-variant:normal;font-weight:normal;font-stretch:normal;font-family:Ubuntu;-inkscape-font-specification:Ubuntu"
           id="tspan1142">10.00%</tspan></text>
    </g>
    <g
       class="tick"
       opacity="1"
       transform="translate(0,75)"
       id="g176">
      <text
         fill="#000000"
         x="-9"
         y="0.5"
         dy="0.31999999em"
         style="font-size:12px"
         id="text174"><tspan
           style="font-style:normal;font-variant:normal;font-weight:normal;font-stretch:normal;font-family:Ubuntu;-inkscape-font-specification:Ubuntu"
           id="tspan1144">12.00%</tspan></text>
    </g>
    <g
       class="tick"
       opacity="1"
       transform="translate(0,37.5)"
       id="g182">
      <text
         fill="#000000"
         x="-9"
         y="0.5"
         dy="0.31999999em"
         style="font-size:12px"
         id="text180"><tspan
           style="font-style:normal;font-variant:normal;font-weight:normal;font-stretch:normal;font-family:Ubuntu;-inkscape-font-specification:Ubuntu"
           id="tspan1146">14.00%</tspan></text>
    </g>
    <g
       class="tick"
       opacity="1"
       id="g188">
      <text
         fill="#000000"
         x="-9"
         y="0.5"
         dy="0.31999999em"
         style="font-size:12px"
         id="text186"><tspan
           style="font-style:normal;font-variant:normal;font-weight:normal;font-stretch:normal;font-family:Ubuntu;-inkscape-font-specification:Ubuntu"
           id="tspan1148">16.00%</tspan></text>
    </g>
  </g>
  <g
     class="grid-lines"
     fill="none"
     font-size="10px"
     font-family="sans-serif"
     text-anchor="end"
     id="g230"
     transform="translate(191.80903,40)">
    <path
       class="domain"
       stroke="#000"
       d="M 410,300.5 H 0.5 V 0.5 H 410"
       id="path192"
       style="stroke:none;stroke-width:1;stroke-miterlimit:4;stroke-dasharray:none" />
    <g
       class="tick"
       opacity="1"
       transform="translate(0,262.5)"
       id="g200">
      <line
         stroke="#000"
         x2="410"
         y1="0.5"
         y2="0.5"
         style="fill:none;stroke:#cccccc"
         id="line198"
         x1="0" />
    </g>
    <g
       class="tick"
       opacity="1"
       transform="translate(0,225)"
       id="g204">
      <line
         stroke="#000"
         x2="410"
         y1="0.5"
         y2="0.5"
         style="fill:none;stroke:#cccccc"
         id="line202"
         x1="0" />
    </g>
    <g
       class="tick"
       opacity="1"
       transform="translate(0,187.5)"
       id="g208">
      <line
         stroke="#000"
         x2="410"
         y1="0.5"
         y2="0.5"
         style="fill:none;stroke:#cccccc"
         id="line206"
         x1="0" />
    </g>
    <g
       class="tick"
       opacity="1"
       transform="translate(0,150)"
       id="g212">
      <line
         stroke="#000"
         x2="410"
         y1="0.5"
         y2="0.5"
         style="fill:none;stroke:#cccccc"
         id="line210"
         x1="0" />
    </g>
    <g
       class="tick"
       opacity="1"
       transform="translate(0,112.5)"
       id="g216">
      <line
         stroke="#000"
         x2="410"
         y1="0.5"
         y2="0.5"
         style="fill:none;stroke:#cccccc"
         id="line214"
         x1="0" />
    </g>
    <g
       class="tick"
       opacity="1"
       transform="translate(0,75)"
       id="g220">
      <line
         stroke="#000"
         x2="410"
         y1="0.5"
         y2="0.5"
         style="fill:none;stroke:#cccccc"
         id="line218"
         x1="0" />
    </g>
    <g
       class="tick"
       opacity="1"
       transform="translate(0,37.5)"
       id="g224">
      <line
         stroke="#000"
         x2="410"
         y1="0.5"
         y2="0.5"
         style="fill:none;stroke:#cccccc"
         id="line222"
         x1="0" />
    </g>
    <g
       class="tick"
       opacity="1"
       id="g228">
      <line
         stroke="#000"
         x2="410"
         y1="0.5"
         y2="0.5"
         style="fill:none;stroke:#cccccc"
         id="line226"
         x1="0" />
    </g>
  </g>
  <path
     class="line"
     d="m 194.72953,253.73113 2.82628,-7.8446 2.92442,7.699 2.82629,-11.80802 2.9205,3.8409 2.92049,-7.60946 2.63787,9.05482 2.91657,-0.19291 2.82629,-12.06452 2.9205,1.00841 2.82628,2.05471 2.9205,-5.26334 2.92049,6.84617 2.82629,-5.81903 2.92442,-3.10329 2.82629,-5.76518 2.9205,5.13884 2.92049,-1.16209 2.63787,3.37026 2.91657,-5.36531 2.82629,-3.86365 2.92049,-0.29457 2.82629,-2.71975 2.9205,1.65401 2.92049,-4.7598 2.82629,1.52508 2.92442,-1.27279 2.82629,-11.08681 2.9205,6.23142 2.92049,0.89766 2.63787,0.70546 2.91657,-9.06493 2.82629,-1.69413 2.92049,-8.86652 2.82629,-5.5835 2.9205,-4.5847 2.92049,5.03234 2.82629,2.05104 2.92442,-0.796 2.82629,-1.26039 2.92049,-4.28375 2.9205,3.79375 2.73208,1.00091 2.91657,-5.20886 2.82629,-5.37118 2.92049,-0.52395 2.82629,-1.54016 2.9205,-2.34769 2.92049,6.57871 2.82629,2.89268 2.92442,-1.05947 2.82629,-6.249 2.92049,-1.34706 2.9205,-2.90051 2.63787,1.67876 2.91657,-2.54829 2.82628,-1.57456 2.9205,-3.68187 2.82629,-5.54125 2.92049,-6.88705 2.9205,-15.19684 2.82629,-0.24638 2.92442,4.17576 2.82629,-7.62523 2.92049,-5.25064 2.9205,-1.65344 2.63787,6.68265 2.91657,-2.21065 2.82628,-3.98097 2.9205,-0.58403 2.82629,-1.97179 2.92049,1.20949 2.9205,7.19225 2.82629,-0.47419 2.92442,2.8296 2.82628,-2.8093 2.9205,-4.34827 2.9205,1.1136 2.63787,5.12343 2.91657,-3.79923 2.82628,-17.31366 2.9205,-2.00008 2.82629,-4.46387 2.92049,1.3335 2.9205,2.96227 2.82629,6.34027 2.92442,-4.28136 2.82628,-5.50771 2.9205,-3.85368 2.9205,9.29068 2.73207,-0.31487 2.91657,0.56307 2.82629,-4.35406 2.9205,2.35542 2.82628,-9.96542 2.9205,1.18997 2.9205,10.53281 2.82628,4.86744 2.92443,-0.92379 2.82628,-9.41573 2.9205,1.72655 2.9205,0.40007 2.63786,6.21878 2.91657,-2.40261 2.82629,-2.03672 2.9205,-2.05542 2.82628,1.57857 2.9205,-0.2415 2.9205,6.08675 2.82628,0.56514 2.92442,3.8059 2.82629,-3.6781 2.9205,-2.56573 2.92049,10.55132 2.63787,3.25329 2.91657,0.48926 2.82629,5.03653 2.9205,-6.72738 2.82628,-0.59792 2.9205,-2.64779 2.9205,3.89875 2.82628,4.08966 2.92442,0.86308 2.82629,-0.1382 2.9205,1.50358 2.92049,-0.0528 2.63787,-0.66615 2.91657,4.23349 2.82629,-2.36786 2.92049,-4.71526 2.82629,3.49521 2.9205,-4.03859 2.92049,8.41808 2.82629,5.94271 2.92442,-2.92786 2.82629,-3.8272 2.9205,-0.18724 2.92049,1.89204 2.73208,-7.28895 2.91657,-3.20533 2.82629,-1.61146 2.92049,-1.53912 2.82629,-7.44599"
     data-legend="javascript"
     style="fill:none;stroke:#ff7f0e;stroke-width:1;stroke-miterlimit:4;stroke-dasharray:3, 1;stroke-dashoffset:0"
     id="path234" />
  <path
     class="line"
     d="m 194.72953,186.73796 2.82628,3.58917 2.92442,6.69349 2.82629,12.64268 2.9205,-6.70728 2.92049,7.0807 2.63787,-3.19908 2.91657,-2.89488 2.82629,2.62121 2.9205,-8.08729 2.82628,9.45394 2.9205,5.31224 2.92049,-2.95227 2.82629,-0.64709 2.92442,-5.46106 2.82629,1.15956 2.9205,-21.99821 2.92049,5.69871 2.63787,-9.75472 2.91657,14.04458 2.82629,-4.97476 2.92049,6.44311 2.82629,4.97354 2.9205,0.66456 2.92049,-5.9876 2.82629,-3.17115 2.92442,-2.89388 2.82629,-2.34655 2.9205,-0.21116 2.92049,-2.00276 2.63787,-2.03262 2.91657,2.76965 2.82629,-5.26311 2.92049,10.41976 2.82629,-2.26708 2.9205,0.0903 2.92049,-1.13551 2.82629,-5.20435 2.92442,-7.72622 2.82629,-0.39476 2.92049,2.78085 2.9205,-2.21524 2.73208,-8.10875 2.91657,-1.14346 2.82629,5.09701 2.92049,10.67515 2.82629,-2.65603 2.9205,-0.69638 2.92049,-2.30671 2.82629,-4.19242 2.92442,-3.59569 2.82629,0.22886 2.92049,9.02597 2.9205,-4.59867 2.63787,-3.94467 2.91657,-5.6388 2.82628,5.32451 2.9205,6.97144 2.82629,3.96894 2.92049,-4.669 2.9205,-18.12498 2.82629,-6.56283 2.92442,-8.84274 2.82629,1.63431 2.92049,12.37914 2.9205,-6.96878 2.63787,-6.05219 2.91657,-2.98153 2.82628,10.18458 2.9205,7.67119 2.82629,-0.20925 2.92049,3.1388 2.9205,-8.29647 2.82629,-5.5045 2.92442,-6.81076 2.82628,3.30149 2.9205,10.66324 2.9205,0.14209 2.63787,-8.61774 2.91657,-0.58209 2.82628,8.60636 2.9205,9.01571 2.82629,-1.14931 2.92049,2.80233 2.9205,-2.20196 2.82629,-7.89645 2.92442,-0.53584 2.82628,7.14201 2.9205,7.73937 2.9205,-5.51293 2.73207,-7.59733 2.91657,-0.64129 2.82629,17.07934 2.9205,6.90471 2.82628,3.47414 2.9205,1.72061 2.9205,-3.9094 2.82628,-3.62782 2.92443,-3.41813 2.82628,7.49472 2.9205,5.40318 2.9205,-1.33016 2.63786,-5.18681 2.91657,-6.26437 2.82629,3.06732 2.9205,10.68373 2.82628,6.16892 2.9205,2.40469 2.9205,-2.38537 2.82628,-6.93158 2.92442,-3.10867 2.82629,2.98641 2.9205,10.18558 2.92049,-3.12386 2.63787,0.31538 2.91657,-8.77751 2.82629,5.10961 2.9205,7.37426 2.82628,4.96533 2.9205,3.96668 2.9205,-6.1302 2.82628,-6.61112 2.92442,-0.66925 2.82629,-1.71442 2.9205,9.98074 2.92049,-2.38499 2.63787,0.38078 2.91657,4.01863 2.82629,-1.27988 2.92049,5.20614 2.82629,-1.87152 2.9205,10.28168 2.92049,-7.45191 2.82629,-4.29661 2.92442,7.08574 2.82629,2.19553 2.9205,1.35079 2.92049,-0.50622 2.73208,-4.84662 2.91657,2.72367 2.82629,7.50661 2.92049,4.71422 2.82629,0.73973"
     data-legend="java"
     style="fill:none;stroke:#2ca02c;stroke-width:1;stroke-miterlimit:4;stroke-dasharray:2, 1;stroke-dashoffset:0"
     id="path236" />
  <path
     class="line"
     d="m 194.72953,117.72286 2.82628,-35.918304 2.92442,-0.0032 2.82629,8.021137 2.9205,-33.205577 2.92049,3.768419 2.63787,-12.787648 2.91657,-2.06312 2.82629,33.315233 2.9205,1.188956 2.82628,2.533957 2.9205,-0.364225 2.92049,8.226967 2.82629,3.7346 2.92442,15.682385 2.82629,5.33381 2.9205,9.83171 2.92049,-0.15975 2.63787,-3.05536 2.91657,-0.0129 2.82629,2.59977 2.92049,7.35594 2.82629,0.89266 2.9205,1.11436 2.92049,8.86431 2.82629,-1.92475 2.92442,1.12472 2.82629,5.33969 2.9205,4.5685 2.92049,1.27909 2.63787,0.51231 2.91657,3.81273 2.82629,-5.42515 2.92049,2.64361 2.82629,5.87459 2.9205,2.8231 2.92049,5.20447 2.82629,0.47786 2.92442,0.0695 2.82629,2.09519 2.92049,-0.28449 2.9205,5.91408 2.73208,0.10563 2.91657,0.92331 2.82629,0.26863 2.92049,-0.72134 2.82629,-0.74003 2.9205,4.27145 2.92049,-1.41438 2.82629,0.64186 2.92442,4.26797 2.82629,3.26314 2.92049,-0.29516 2.9205,-1.07331 2.63787,-0.64649 2.91657,1.87427 2.82628,0.22522 2.9205,0.25465 2.82629,0.93127 2.92049,-1.99532 2.9205,-3.08045 2.82629,1.20136 2.92442,-0.60779 2.82629,0.77711 2.92049,2.17896 2.9205,1.48195 2.63787,4.68978 2.91657,-1.61192 2.82628,-0.37284 2.9205,3.52923 2.82629,-0.53655 2.92049,1.46921 2.9205,4.14041 2.82629,2.91791 2.92442,2.62188 2.82628,-0.35446 2.9205,1.11282 2.9205,1.27638 2.63787,0.44713 2.91657,1.55948 2.82628,-5.73115 2.9205,-0.0927 2.82629,-0.35434 2.92049,-1.35776 2.9205,0.67208 2.82629,7.46807 2.92442,-1.61084 2.82628,-1.82601 2.9205,4.12969 2.9205,1.09055 2.73207,0.13511 2.91657,-4.13865 2.82629,-2.94185 2.9205,0.63829 2.82628,5.63215 2.9205,-4.0456 2.9205,9.85148 2.82628,-0.97655 2.92443,-2.24822 2.82628,1.07452 2.9205,-0.59825 2.9205,1.06002 2.63786,2.24964 2.91657,4.52584 2.82629,-4.18102 2.9205,1.70658 2.82628,1.99591 2.9205,1.01833 2.9205,1.53401 2.82628,1.54485 2.92442,4.02953 2.82629,-2.33452 2.9205,1.09007 2.92049,4.85388 2.63787,-1.17888 2.91657,-0.37449 2.82629,-4.69948 2.9205,4.48178 2.82628,-3.79713 2.9205,-2.08236 2.9205,3.87858 2.82628,-0.45448 2.92442,2.81332 2.82629,-1.09351 2.9205,-3.12578 2.92049,3.16853 2.63787,2.77508 2.91657,-7.28901 2.82629,-0.49374 2.92049,6.94964 2.82629,0.15963 2.9205,2.27108 2.92049,0.25695 2.82629,4.5776 2.92442,1.28273 2.82629,1.10997 2.9205,1.11431 2.92049,0.0886 2.73208,6.04717 2.91657,4.78446 2.82629,2.23737 2.92049,0.63758 2.82629,-2.65575"
     data-legend="c#"
     style="fill:none;stroke:#d62728;stroke-width:1;stroke-miterlimit:4;stroke-dasharray:2, 1;stroke-dashoffset:0"
     id="path238" />
  <path
     class="line"
     d="m 194.72953,275.02876 2.82628,-15.12257 2.92442,4.87292 2.82629,-0.13002 2.9205,-0.44037 2.92049,-6.94197 2.63787,-0.86312 2.91657,-2.25983 2.82629,-0.9249 2.9205,-18.94318 2.82628,-13.03895 2.9205,-7.58931 2.92049,-3.58604 2.82629,6.91951 2.92442,-9.21011 2.82629,-9.43704 2.9205,-2.88779 2.92049,10.95958 2.63787,-2.15103 2.91657,-1.94638 2.82629,-7.41581 2.92049,6.37295 2.82629,-4.2199 2.9205,-9.48779 2.92049,7.50994 2.82629,11.28248 2.92442,-5.02946 2.82629,-7.63983 2.9205,-5.44997 2.92049,-0.92998 2.63787,1.07648 2.91657,0.66867 2.82629,-1.22034 2.92049,-0.7986 2.82629,-9.95361 2.9205,5.70437 2.92049,8.06343 2.82629,-0.84415 2.92442,-0.2403 2.82629,-1.3214 2.92049,0.37868 2.9205,-0.0657 2.73208,-2.31644 2.91657,1.24148 2.82629,-0.94477 2.92049,0.78342 2.82629,-3.71346 2.9205,-2.56998 2.92049,1.88494 2.82629,8.22922 2.92442,-1.80591 2.82629,-4.18615 2.92049,0.34436 2.9205,-0.74992 2.63787,1.16853 2.91657,5.93396 2.82628,-0.92068 2.9205,-3.1994 2.82629,-1.41356 2.92049,-5.83148 2.9205,-3.41558 2.82629,5.31823 2.92442,-2.38214 2.82629,-5.23729 2.92049,-3.38176 2.9205,1.61589 2.63787,-0.4291 2.91657,-4.97626 2.82628,13.19825 2.9205,6.99209 2.82629,-0.82399 2.92049,-0.27063 2.9205,0.67236 2.82629,3.1032 2.92442,1.03802 2.82628,-2.63153 2.9205,-4.68387 2.9205,3.49381 2.63787,3.03951 2.91657,-0.76514 2.82628,0.90131 2.9205,3.82945 2.82629,-4.32749 2.92049,0.45748 2.9205,4.77231 2.82629,2.60075 2.92442,-0.2679 2.82628,-9.5752 2.9205,-1.20958 2.9205,2.32786 2.73207,7.81385 2.91657,2.93496 2.82629,-5.21 2.9205,4.15584 2.82628,1.99141 2.9205,4.12872 2.9205,0.0796 2.82628,1.48189 2.92443,3.38977 2.82628,-4.5969 2.9205,-1.3477 2.9205,-0.20528 2.63786,3.08452 2.91657,0.52954 2.82629,-0.58345 2.9205,7.27062 2.82628,0.89455 2.9205,-0.22355 2.9205,-0.53244 2.82628,4.38277 2.92442,1.76329 2.82629,-0.48785 2.9205,-0.55383 2.92049,6.52812 2.63787,5.21453 2.91657,3.72131 2.82629,-2.88244 2.9205,3.40222 2.82628,1.92161 2.9205,-0.20097 2.9205,0.75449 2.82628,3.83216 2.92442,6.64453 2.82629,0.6116 2.9205,-1.79259 2.92049,-3.63101 2.63787,2.98012 2.91657,2.43686 2.82629,1.50601 2.92049,3.77036 2.82629,0.11193 2.9205,5.37297 2.92049,3.36886 2.82629,2.16757 2.92442,-1.83706 2.82629,2.15697 2.9205,-0.34687 2.92049,1.92648 2.73208,5.30801 2.91657,-1.32324 2.82629,2.17486 2.92049,0.93693 2.82629,-3.5271"
     data-legend="php"
     style="fill:none;stroke:#9467bd;stroke-width:1;stroke-miterlimit:4;stroke-dasharray:2, 1;stroke-dashoffset:0"
     id="path240" />
  <path
     class="line"
     d="m 194.72953,238.22969 2.82628,-3.50697 2.92442,-4.41985 2.82629,10.53471 2.9205,-2.48846 2.92049,10.74114 2.63787,-6.74266 2.91657,7.18409 2.82629,1.11972 2.9205,5.50522 2.82628,-1.82956 2.9205,4.69402 2.92049,-2.95408 2.82629,-3.96007 2.92442,1.47711 2.82629,3.41857 2.9205,-1.12969 2.92049,-11.83335 2.63787,7.79994 2.91657,-5.74603 2.82629,5.94157 2.92049,-7.75151 2.82629,12.30042 2.9205,5.29967 2.92049,-6.44555 2.82629,-2.13475 2.92442,-4.60176 2.82629,6.24358 2.9205,2.59921 2.92049,4.11864 2.63787,0.31535 2.91657,-3.99339 2.82629,9.14146 2.92049,0.50149 2.82629,0.44767 2.9205,2.64152 2.92049,-3.37384 2.82629,-8.01013 2.92442,3.31424 2.82629,-1.60351 2.92049,5.4302 2.9205,-3.94778 2.73208,3.8138 2.91657,-3.68188 2.82629,7.67042 2.92049,2.78035 2.82629,-3.11572 2.9205,1.31612 2.92049,-1.24691 2.82629,-4.35345 2.92442,-5.53574 2.82629,0.71608 2.92049,6.89572 2.9205,-2.32175 2.63787,-3.26012 2.91657,-0.56631 2.82628,1.10255 2.9205,3.68282 2.82629,3.62518 2.92049,0.90393 2.9205,-5.40023 2.82629,-6.93233 2.92442,-5.31936 2.82629,7.053 2.92049,3.11551 2.9205,-0.26641 2.63787,-1.56974 2.91657,-0.11863 2.82628,6.04001 2.9205,6.7534 2.82629,-0.94533 2.92049,-1.09966 2.9205,-2.62343 2.82629,-4.16445 2.92442,0.33878 2.82628,0.45445 2.9205,3.99986 2.9205,-2.77033 2.63787,-0.83804 2.91657,2.36776 2.82628,1.66327 2.9205,3.88363 2.82629,0.66883 2.92049,3.63615 2.9205,-1.62613 2.82629,-8.61224 2.92442,-3.71409 2.82628,3.27673 2.9205,8.1918 2.9205,-2.17925 2.73207,-0.13456 2.91657,-0.33852 2.82629,5.00038 2.9205,2.54705 2.82628,0.18096 2.9205,6.33136 2.9205,-4.57009 2.82628,-7.76232 2.92443,-1.2713 2.82628,4.68144 2.9205,0.56275 2.9205,4.54838 2.63786,-2.49022 2.91657,-3.83291 2.82629,8.54938 2.9205,4.00183 2.82628,-3.15033 2.9205,1.78036 2.9205,-1.07609 2.82628,-5.89608 2.92442,1.70066 2.82629,-1.63497 2.9205,1.84324 2.92049,-0.38643 2.63787,-0.31698 2.91657,2.46552 2.82629,1.41695 2.9205,2.58654 2.82628,3.89113 2.9205,-0.44808 2.9205,-2.43438 2.82628,-1.82053 2.92442,-4.30951 2.82629,4.01957 2.9205,1.67783 2.92049,1.01828 2.63787,-3.80923 2.91657,-2.14772 2.82629,2.64551 2.92049,0.74733 2.82629,-2.43927 2.9205,9.97041 2.92049,-5.0527 2.82629,-6.84575 2.92442,-0.0546 2.82629,-0.21094 2.9205,5.87338 2.92049,1.21204 2.73208,-2.41336 2.91657,-6.53512 2.82629,-1.15405 2.92049,3.08008 2.82629,2.84307"
     data-legend="c++"
     style="fill:none;stroke:#8c564b;stroke-width:1;stroke-miterlimit:4;stroke-dasharray:2, 1;stroke-dashoffset:0"
     id="path242" />
  <path
     class="line"
     d="m 194.72953,266.94105 2.82628,6.85499 2.92442,-1.25604 2.82629,-1.62472 2.9205,-6.11072 2.92049,7.41658 2.63787,-2.96364 2.91657,2.62519 2.82629,-5.16614 2.9205,3.35822 2.82628,2.11055 2.9205,1.97957 2.92049,-0.96753 2.82629,-7.1441 2.92442,-2.6872 2.82629,-2.90939 2.9205,-2.3566 2.92049,3.26043 2.63787,3.77535 2.91657,6.37651 2.82629,-4.48368 2.92049,-1.79447 2.82629,-5.73533 2.9205,6.64888 2.92049,4.45231 2.82629,-9.5549 2.92442,8.30273 2.82629,3.34524 2.9205,-1.15887 2.92049,-0.0593 2.63787,-1.43895 2.91657,4.13169 2.82629,-0.16433 2.92049,0.10898 2.82629,-2.56472 2.9205,1.27156 2.92049,2.3803 2.82629,-2.42501 2.92442,0.43346 2.82629,1.20019 2.92049,-2.42733 2.9205,-0.10924 2.73208,-2.76541 2.91657,-0.86122 2.82629,0.42282 2.92049,-4.4958 2.82629,-0.13507 2.9205,-2.09989 2.92049,3.24673 2.82629,-2.2365 2.92442,-4.33748 2.82629,1.26497 2.92049,1.52964 2.9205,-4.2025 2.63787,0.13901 2.91657,-4.36853 2.82628,-1.18014 2.9205,-2.05233 2.82629,-1.43261 2.92049,3.97991 2.9205,-2.66433 2.82629,-6.42633 2.92442,-4.31886 2.82629,4.99285 2.92049,-1.70499 2.9205,-1.20535 2.63787,-4.2502 2.91657,-0.67954 2.82628,5.26913 2.9205,-4.31512 2.82629,-2.33472 2.92049,0.58246 2.9205,5.47656 2.82629,-5.01088 2.92442,-3.80738 2.82628,-1.38643 2.9205,-0.44795 2.9205,-4.25335 2.63787,-1.14004 2.91657,1.52557 2.82628,-0.14603 2.9205,-4.60974 2.82629,-0.43799 2.92049,2.23801 2.9205,0.33214 2.82629,-10.1166 2.92442,-3.79038 2.82628,2.81116 2.9205,-1.24004 2.9205,-4.17933 2.73207,1.01774 2.91657,0.6042 2.82629,0.35469 2.9205,-1.54466 2.82628,-4.61602 2.9205,2.72906 2.9205,-1.79493 2.82628,-9.57791 2.92443,-7.47635 2.82628,1.06949 2.9205,-0.74766 2.9205,-6.72188 2.63786,-1.15645 2.91657,-4.95851 2.82629,1.72855 2.9205,-6.13911 2.82628,-7.92518 2.9205,2.47375 2.9205,-4.62142 2.82628,-8.41848 2.92442,-1.57867 2.82629,-4.49629 2.9205,2.83269 2.92049,-10.15377 2.63787,5.85138 2.91657,-1.67694 2.82629,-0.82703 2.9205,-7.61682 2.82628,-6.63132 2.9205,0.0832 2.9205,1.86537 2.82628,-4.21749 2.92442,-13.70797 2.82629,2.23524 2.9205,10.25716 2.92049,-11.75904 2.63787,-7.08768 2.91657,-10.45214 2.82629,7.98268 2.92049,-4.194088 2.82629,-7.182146 2.9205,3.333065 2.92049,18.280569 2.82629,-18.96628 2.92442,-8.503903 2.82629,4.659522 2.9205,-1.61482 2.92049,-2.029861 2.73208,-14.295422 2.91657,-8.614868 2.82629,-11.573279 2.92049,-0.824258 2.82629,0.176029"
     data-legend="python"
     style="fill:none;stroke:#1f77b4;stroke-width:2;stroke-miterlimit:4;stroke-dasharray:none"
     id="path232" />
  <g
     transform="translate(111.80903,170)"
     id="g250">
    <text
       transform="rotate(-90)"
       x="-24"
       y="0"
       dy="12"
       class="axis-label y-axis-label"
       style="font-weight:bold;text-anchor:middle"
       id="text248"><tspan
         style="font-style:normal;font-variant:normal;font-weight:normal;font-stretch:normal;font-family:Ubuntu;-inkscape-font-specification:Ubuntu"
         id="tspan1118">% of Stack Overflow questions that month</tspan></text>
  </g>
  <g
     class="legend"
     transform="translate(621.80903,50)"
     style="font-size:12px"
     id="g282">
    <g
       class="legend-items"
       transform="translate(0,20)"
       id="g278">
      <text
         y="0em"
         x="1em"
         id="text254"><tspan
           style="font-style:normal;font-variant:normal;font-weight:normal;font-stretch:normal;font-family:Ubuntu;-inkscape-font-specification:Ubuntu"
           id="tspan1150">c#</tspan></text>
      <text
         y="1em"
         x="1em"
         id="text256"><tspan
           style="font-style:normal;font-variant:normal;font-weight:bold;font-stretch:normal;font-family:Ubuntu;-inkscape-font-specification:'Ubuntu Bold'"
           id="tspan1114">python</tspan></text>
      <text
         y="2em"
         x="1em"
         id="text258"><tspan
           style="font-style:normal;font-variant:normal;font-weight:normal;font-stretch:normal;font-family:Ubuntu;-inkscape-font-specification:Ubuntu"
           id="tspan1152">javascript</tspan></text>
      <text
         y="3em"
         x="1em"
         id="text260"><tspan
           style="font-style:normal;font-variant:normal;font-weight:normal;font-stretch:normal;font-family:Ubuntu;-inkscape-font-specification:Ubuntu"
           id="tspan1154">java</tspan></text>
      <text
         y="4em"
         x="1em"
         id="text262"><tspan
           style="font-style:normal;font-variant:normal;font-weight:normal;font-stretch:normal;font-family:Ubuntu;-inkscape-font-specification:Ubuntu"
           id="tspan1156">php</tspan></text>
      <text
         y="5em"
         x="1em"
         id="text264"><tspan
           style="font-style:normal;font-variant:normal;font-weight:normal;font-stretch:normal;font-family:Ubuntu;-inkscape-font-specification:Ubuntu"
           id="tspan1158">c++</tspan></text>
      <circle
         cy="-0.25em"
         cx="0"
         r="0.40000001em"
         style="fill:#d62728"
         id="circle266" />
      <circle
         cy="0.75em"
         cx="0"
         r="0.40000001em"
         style="fill:#1f77b4"
         id="circle268" />
      <circle
         cy="1.75em"
         cx="0"
         r="0.40000001em"
         style="fill:#ff7f0e"
         id="circle270" />
      <circle
         cy="2.75em"
         cx="0"
         r="0.40000001em"
         style="fill:#2ca02c"
         id="circle272" />
      <circle
         cy="3.75em"
         cx="0"
         r="0.40000001em"
         style="fill:#9467bd"
         id="circle274" />
      <circle
         cy="4.75em"
         cx="0"
         r="0.40000001em"
         style="fill:#8c564b"
         id="circle276" />
    </g>
    <rect
       class="legend-box"
       id="rect280"
       width="0"
       height="0"
       x="0"
       y="0" />
  </g>
</svg>
